<svg xmlns="http://www.w3.org/2000/svg" xmlns:xlink="http://www.w3.org/1999/xlink" preserveAspectRatio="xMidYMid" width="32" height="32" viewBox="0 0 32 32">
  <defs>
    <style>
      .cls-1 {
        fill: #d8bba3;
        fill-rule: evenodd;
      }
    </style>
  </defs>
  <path d="M16.000,31.998 C7.163,31.998 -0.000,24.834 -0.000,15.998 C-0.000,7.161 7.163,-0.002 16.000,-0.002 C24.836,-0.002 32.000,7.161 32.000,15.998 C32.000,24.834 24.836,31.998 16.000,31.998 ZM16.000,1.997 C8.268,1.997 2.000,8.265 2.000,15.998 C2.000,23.730 8.268,29.997 16.000,29.997 C23.732,29.997 30.000,23.730 30.000,15.998 C30.000,8.265 23.732,1.997 16.000,1.997 ZM18.799,21.807 C18.528,22.066 18.088,22.066 17.816,21.807 L12.246,16.502 C12.232,16.491 12.214,16.486 12.201,16.474 C12.063,16.343 11.996,16.170 11.998,15.998 C11.996,15.826 12.063,15.654 12.201,15.523 C12.214,15.510 12.233,15.505 12.247,15.493 L17.816,10.190 C18.088,9.930 18.528,9.930 18.799,10.190 C19.071,10.448 19.071,10.867 18.799,11.126 L13.683,15.998 L18.799,20.871 C19.071,21.129 19.071,21.549 18.799,21.807 Z" class="cls-1"/>
</svg>
