<svg xmlns="http://www.w3.org/2000/svg" xmlns:xlink="http://www.w3.org/1999/xlink" preserveAspectRatio="xMidYMid" width="32" height="32" viewBox="0 0 32 32">
  <defs>
    <style>
      .cls-1 {
        fill: #56534c;
        fill-rule: evenodd;
      }
    </style>
  </defs>
  <path d="M16.000,32.002 C7.163,32.002 0.000,24.838 0.000,16.001 C0.000,7.166 7.163,0.001 16.000,0.001 C24.837,0.001 32.000,7.166 32.000,16.001 C32.000,24.838 24.837,32.002 16.000,32.002 ZM16.000,2.002 C8.268,2.002 2.000,8.270 2.000,16.001 C2.000,23.734 8.268,30.002 16.000,30.002 C23.732,30.002 30.000,23.734 30.000,16.001 C30.000,8.270 23.732,2.002 16.000,2.002 ZM19.799,16.477 C19.786,16.490 19.767,16.494 19.753,16.506 L14.184,21.810 C13.912,22.069 13.472,22.069 13.201,21.810 C12.929,21.551 12.929,21.132 13.201,20.874 L18.317,16.001 L13.201,11.129 C12.929,10.870 12.929,10.451 13.201,10.192 C13.472,9.933 13.912,9.933 14.184,10.192 L19.755,15.498 C19.769,15.509 19.786,15.513 19.799,15.526 C19.937,15.657 20.004,15.829 20.001,16.001 C20.004,16.173 19.937,16.346 19.799,16.477 Z" class="cls-1"/>
</svg>
